<?xml version="1.0" encoding="UTF-8"?>
<svg id="Capa_1" data-name="Capa 1" xmlns="http://www.w3.org/2000/svg" viewBox="0 0 16 16">
  <defs>
    <style>
      .cls-1 {
        fill: #1c7cbf;
      }

      .cls-1, .cls-2 {
        stroke-width: 0px;
      }

      .cls-2 {
        fill: #824e80;
      }
    </style>
  </defs>
  <path class="cls-1" d="M7,14.36s-1,0-1-1,1-4,5-4,5,3,5,4-1,1-1,1H7Z"/>
  <path class="cls-1" d="M11,8.36c1.66,0,3-1.34,3-3s-1.34-3-3-3-3,1.34-3,3,1.34,3,3,3"/>
  <path class="cls-2" d="M5.22,14.36c-.15-.31-.22-.65-.22-1,0-1.35.68-2.75,1.94-3.72-.63-.19-1.28-.29-1.94-.28C1,9.36,0,12.36,0,13.36s1,1,1,1h4.22Z"/>
  <path class="cls-2" d="M4.5,8.36c1.38,0,2.5-1.12,2.5-2.5s-1.12-2.5-2.5-2.5-2.5,1.12-2.5,2.5,1.12,2.5,2.5,2.5"/>
</svg>