<?xml version="1.0" encoding="UTF-8"?>
<svg id="Capa_1" data-name="Capa 1" xmlns="http://www.w3.org/2000/svg" viewBox="0 0 16 16">
  <defs>
    <style>
      .cls-1 {
        fill: #1c7cbf;
      }

      .cls-1, .cls-2 {
        stroke-width: 0px;
      }

      .cls-2 {
        fill: #824e80;
      }
    </style>
  </defs>
  <path class="cls-2" d="M1.53,8.64c0-3.46,2.48-6.07,5.93-6.07,1.1,0,2.05.24,3,.79.27.16.75-.08.9-.35.15-.27.06-.61-.21-.77C7.62.19,3.1,1.4,1.06,4.94-.99,8.48.23,13,3.76,15.05c3.54,2.04,8.06.83,10.11-2.71.65-1.12.99-2.4.99-3.7,0-.31-.25-.57-.57-.57s-.7.25-.7.57c0,3.46-2.67,5.98-6.13,5.98S1.53,12.1,1.53,8.64"/>
  <path class="cls-1" d="M15.83,3.35c.22-.22.22-.58,0-.81-.22-.22-.58-.22-.81,0h0l-7.56,6.51-3.01-1.96c-.22-.22-.58-.22-.81,0s-.22.58,0,.81l3.41,3.41c.22.22.58.22.8,0,0,0,0,0,0,0l7.97-7.97Z"/>
</svg>