<?xml version="1.0" encoding="UTF-8"?>
<svg id="Capa_1" data-name="Capa 1" xmlns="http://www.w3.org/2000/svg" viewBox="0 0 16 16">
  <defs>
    <style>
      .cls-1 {
        fill: #1c7cbf;
        stroke-width: 0px;
      }
    </style>
  </defs>
  <path class="cls-1" d="M8,0C3.58,0,0,3.58,0,8S3.58,16,8,16s8-3.58,8-8S12.42,0,8,0ZM12,11.16c0,.28-.22.5-.5.5s-.5-.22-.5-.5v-7c0-.28.22-.5.5-.5s.5.22.5.5v7ZM2.5,8.5c-.28,0-.5-.22-.5-.5s.22-.5.5-.5h5.79l-2.15-2.15c-.2-.2-.2-.51,0-.71s.51-.2.71,0l3,3c.2.2.2.51,0,.71,0,0,0,0,0,0l-3,3c-.2.2-.51.2-.71,0s-.2-.51,0-.71l2.15-2.15H2.5Z"/>
</svg>