<?xml version="1.0" encoding="UTF-8"?>
<svg id="Capa_1" data-name="Capa 1" xmlns="http://www.w3.org/2000/svg" viewBox="0 0 16 16">
  <defs>
    <style>
      .cls-1 {
        fill: #1c7cbf;
      }

      .cls-1, .cls-2 {
        stroke-width: 0px;
      }

      .cls-2 {
        fill: #824e80;
      }
    </style>
  </defs>
  <path class="cls-1" d="M5.33,5.87c.29,0,.53.24.53.53v6.4c0,.29-.24.53-.53.53s-.53-.24-.53-.53v-6.4c0-.29.24-.53.53-.53M8,5.87c.29,0,.53.24.53.53v6.4c0,.29-.24.53-.53.53s-.53-.24-.53-.53v-6.4c0-.29.24-.53.53-.53M11.2,6.4c0-.29-.24-.53-.53-.53s-.53.24-.53.53v6.4c0,.29.24.53.53.53s.53-.24.53-.53v-6.4Z"/>
  <path class="cls-2" d="M14.93,3.2c0,.59-.48,1.07-1.07,1.07h-.53v9.6c0,1.18-.96,2.13-2.13,2.13h-6.4c-1.18,0-2.13-.96-2.13-2.13V4.27h-.53c-.59,0-1.07-.48-1.07-1.07v-1.07c0-.59.48-1.07,1.07-1.07h3.73C5.87.48,6.34,0,6.93,0h2.13C9.66,0,10.13.48,10.13,1.07h3.73c.59,0,1.07.48,1.07,1.07v1.07ZM3.86,4.27l-.13.06v9.54c0,.59.48,1.07,1.07,1.07h6.4c.59,0,1.07-.48,1.07-1.07V4.33l-.13-.06H3.86ZM2.13,3.2h11.73v-1.07H2.13v1.07Z"/>
</svg>