<?xml version="1.0" encoding="UTF-8"?>
<svg id="Capa_1" data-name="Capa 1" xmlns="http://www.w3.org/2000/svg" viewBox="0 0 16 16">
  <defs>
    <style>
      .cls-1 {
        fill: #1c7cbf;
      }

      .cls-1, .cls-3 {
        stroke-width: 0px;
      }

      .cls-3 {
        fill: #824e80;
      }
    </style>
  </defs>
  <path class="cls-3" d="M8.87,3.63c.76-.76,2-.76,2.76,0l3.79,3.79c.76.76.76,2,0,2.76l-5.37,5.37c-.37.37-.86.57-1.38.57h-2.7c-.52,0-1.02-.21-1.38-.57l-2.44-2.44c-.76-.76-.76-2,0-2.76l6.72-6.72ZM9.52,14.71l-5.17-5.17-1.5,1.5c-.38.38-.38,1,0,1.38l2.44,2.44c.18.18.43.29.69.29h2.7c.26,0,.51-.1.69-.29l.16-.16Z"/>
  <path class="cls-1" d="M5.04,1.44c-1.15-.76-2.7-.44-3.47.71-.55.84-.55,1.92,0,2.76l3.47-3.47ZM5.75,2.15l-3.47,3.47c1.15.76,2.7.44,3.47-.71.55-.84.55-1.92,0-2.76M1.19,1.05c1.35-1.38,3.57-1.4,4.95-.05,1.38,1.35,1.4,3.57.05,4.95-.02.02-.03.03-.05.05-1.37,1.37-3.58,1.37-4.95,0S-.18,2.42,1.19,1.05h0Z"/>
</svg>