<?xml version="1.0" encoding="UTF-8"?>
<svg id="Capa_1" data-name="Capa 1" xmlns="http://www.w3.org/2000/svg" viewBox="0 0 16 16">
  <defs>
    <style>
      .cls-1 {
        fill: #824e80;
        stroke-width: 0px;
      }
    </style>
  </defs>
  <path class="cls-1" d="M16,8.02c0,4.42-3.58,8-8,8S0,12.44,0,8.02,3.58.02,8,.02s8,3.58,8,8M5.35,4.66c-.2-.2-.51-.2-.71,0s-.2.51,0,.71l2.65,2.65-2.65,2.65c-.2.2-.2.51,0,.71s.51.2.71,0l2.65-2.65,2.65,2.65c.2.2.51.2.71,0s.2-.51,0-.71l-2.65-2.65,2.65-2.65c.2-.2.2-.51,0-.71s-.51-.2-.71,0l-2.65,2.65-2.65-2.65Z"/>
</svg>