<?xml version="1.0" encoding="UTF-8"?>
<svg id="Capa_1" data-name="Capa 1" xmlns="http://www.w3.org/2000/svg" viewBox="0 0 16 16">
  <defs>
    <style>
      .cls-1 {
        fill: #824e80;
        stroke-width: 0px;
      }
    </style>
  </defs>
  <path class="cls-1" d="M9.4,1.18c-.41-1.4-2.4-1.4-2.81,0l-.1.34c-.23.78-1.04,1.22-1.82.99-.1-.03-.2-.07-.29-.12l-.31-.17c-1.28-.7-2.69.7-1.99,1.99l.17.31c.45.82.02,1.84-.87,2.11l-.34.1c-1.4.41-1.4,2.4,0,2.81l.34.1c.78.23,1.22,1.04.99,1.82-.03.1-.07.2-.12.29l-.17.31c-.7,1.28.7,2.69,1.99,1.99l.31-.17c.71-.39,1.6-.13,1.99.58.05.09.09.19.12.29l.1.34c.41,1.4,2.4,1.4,2.81,0l.1-.34c.23-.78,1.04-1.22,1.82-.99.1.03.2.07.29.12l.31.17c1.28.7,2.69-.7,1.99-1.99l-.17-.31c-.39-.71-.13-1.6.58-1.99.09-.05.19-.09.29-.12l.34-.1c1.4-.41,1.4-2.4,0-2.81l-.34-.1c-.78-.23-1.22-1.04-.99-1.82.03-.1.07-.2.12-.29l.17-.31c.7-1.28-.7-2.69-1.99-1.99l-.31.17c-.71.39-1.6.13-1.99-.58-.05-.09-.09-.19-.12-.29l-.1-.34ZM8,11.06c-1.62,0-2.93-1.31-2.93-2.93s1.31-2.93,2.93-2.93c1.62,0,2.93,1.31,2.93,2.93,0,1.62-1.31,2.93-2.93,2.93h0Z"/>
</svg>