<?xml version="1.0" encoding="UTF-8"?>
<svg id="Capa_1" data-name="Capa 1" xmlns="http://www.w3.org/2000/svg" viewBox="0 0 16 16">
  <defs>
    <style>
      .cls-1 {
        fill: #1c7cbf;
        fill-rule: evenodd;
      }

      .cls-1, .cls-2 {
        stroke-width: 0px;
      }

      .cls-3 {
        fill: #824e80;
      }
    </style>
  </defs>
  <path class="cls-3" d="M15.18,2.21c.19.2.19.51,0,.71l-1.04,1.04-2-2,1.04-1.04c.2-.2.51-.2.71,0l1.29,1.29h0ZM13.43,4.66l-2-2-6.81,6.81c-.06.06-.1.12-.12.2l-.8,2.41c-.04.13.03.27.16.32.05.02.11.02.16,0l2.41-.81c.07-.02.14-.07.2-.12l6.81-6.81h0Z"/>
  <path class="cls-1" d="M.68,13.77c0,.83.67,1.5,1.5,1.5h11c.83,0,1.5-.67,1.5-1.5v-6c0-.28-.22-.5-.5-.5s-.5.22-.5.5v6c0,.28-.22.5-.5.5H2.18c-.28,0-.5-.22-.5-.5V2.77c0-.28.22-.5.5-.5h6.5c.28,0,.5-.22.5-.5s-.22-.5-.5-.5H2.18c-.83,0-1.5.67-1.5,1.5v11Z"/>
</svg>