<?xml version="1.0" encoding="UTF-8"?>
<svg id="Capa_1" data-name="Capa 1" xmlns="http://www.w3.org/2000/svg" viewBox="0 0 16 16">
  <defs>
    <style>
      .cls-1 {
        fill: #1c7cbf;
      }

      .cls-1, .cls-2 {
        stroke-width: 0px;
      }

      .cls-2 {
        fill: #824e80;
      }
    </style>
  </defs>
  <rect class="cls-1" x="7.47" y="1.96" width="8.53" height="2.13" rx=".53" ry=".53"/>
  <path class="cls-2" d="M0,12.63c0-1.77,1.43-3.2,3.2-3.2s3.2,1.43,3.2,3.2-1.43,3.2-3.2,3.2-3.2-1.43-3.2-3.2"/>
  <rect class="cls-2" x="7.47" y="10.5" width="8.53" height="2.13" rx=".53" ry=".53"/>
  <path class="cls-1" d="M7.47,5.7c0-.29.24-.53.53-.53h5.33c.29,0,.53.24.53.53s-.24.53-.53.53h-5.33c-.29,0-.53-.24-.53-.53"/>
  <path class="cls-2" d="M7.47,14.23c0-.29.24-.53.53-.53h5.33c.29,0,.53.24.53.53s-.24.53-.53.53h-5.33c-.29,0-.53-.24-.53-.53"/>
  <path class="cls-1" d="M3.2.9C1.43.9,0,2.33,0,4.1s1.43,3.2,3.2,3.2,3.2-1.43,3.2-3.2S4.97.9,3.2.9"/>
  <path class="cls-1" d="M3.2,5.7c-.88,0-1.6-.72-1.6-1.6s.72-1.6,1.6-1.6,1.6.72,1.6,1.6-.72,1.6-1.6,1.6"/>
</svg>