<?xml version="1.0" encoding="UTF-8"?>
<svg id="Capa_1" data-name="Capa 1" xmlns="http://www.w3.org/2000/svg" viewBox="0 0 16 16">
  <defs>
    <style>
      .cls-1 {
        fill: #1c7cbf;
      }

      .cls-1, .cls-2 {
        stroke-width: 0px;
      }

      .cls-2 {
        fill: #824e80;
      }
    </style>
  </defs>
  <path class="cls-1" d="M11.73,10.47c2.12-2.9,1.49-6.96-1.4-9.09C7.44-.73,3.37-.11,1.25,2.79-.87,5.68-.25,9.75,2.65,11.87c2.29,1.68,5.4,1.68,7.69,0h0s.06.08.1.11l3.85,3.85c.39.39,1.02.39,1.41,0s.39-1.02,0-1.41l-3.85-3.85s-.07-.07-.11-.1h0ZM11.71,6.63c0,2.88-2.34,5.22-5.22,5.22S1.27,9.51,1.27,6.63,3.61,1.41,6.49,1.41s5.22,2.34,5.22,5.22"/>
  <path class="cls-2" d="M9.34,7.73c-.27.75.96,1.04,1.13.26,1.12-3.39-1.76-5.94-4.42-5.44-.85.12-.69,1.1.24,1.08,1.95-.18,3.81,1.55,3.05,4.1Z"/>
</svg>