<?xml version="1.0" encoding="UTF-8"?>
<svg id="Capa_1" data-name="Capa 1" xmlns="http://www.w3.org/2000/svg" viewBox="0 0 16 16">
  <defs>
    <style>
      .cls-1 {
        fill: #1c7cbf;
      }

      .cls-1, .cls-2 {
        stroke-width: 0px;
      }

      .cls-2 {
        fill: #824e80;
      }
    </style>
  </defs>
  <path class="cls-2" d="M14.49.5H1.49C.66.5,0,1.17,0,2v2c0,.83.67,1.5,1.5,1.5h13c.83,0,1.5-.67,1.5-1.5v-2c0-.83-.67-1.5-1.5-1.5ZM4.49,3.5H1.49c-.28,0-.5-.22-.5-.5s.22-.5.5-.5h3c.28,0,.5.22.5.5s-.22.5-.5.5ZM9.49,3.5h-3c-.28,0-.5-.22-.5-.5s.22-.5.5-.5h3c.28,0,.5.22.5.5s-.22.5-.5.5ZM14.13,3.5h-3c-.28,0-.5-.22-.5-.5s.22-.5.5-.5h3c.28,0,.5.22.5.5s-.22.5-.5.5Z"/>
  <g>
    <path class="cls-1" d="M13.99,6.5H1.99C.89,6.5,0,7.4,0,8.5v5c0,1.1.9,2,2,2h12c1.1,0,2-.9,2-2v-5c0-1.1-.9-2-2-2ZM14.99,13.5c0,.55-.45,1-1,1H1.99c-.55,0-1-.45-1-1v-2h14v2ZM14.99,10.5H.99v-2c0-.55.45-1,1-1h12c.55,0,1,.45,1,1v2Z"/>
    <path class="cls-1" d="M11.49,8.5H2.49c-.28,0-.5.22-.5.5s.22.5.5.5h9c.28,0,.5-.22.5-.5s-.22-.5-.5-.5Z"/>
    <path class="cls-1" d="M2.49,13.5h6c.28,0,.5-.22.5-.5s-.22-.5-.5-.5H2.49c-.28,0-.5.22-.5.5s.22.5.5.5Z"/>
  </g>
</svg>