<?xml version="1.0" encoding="UTF-8"?>
<svg id="Capa_1" data-name="Capa 1" xmlns="http://www.w3.org/2000/svg" viewBox="0 0 16 16">
  <defs>
    <style>
      .cls-1 {
        fill: #1c7cbf;
      }

      .cls-1, .cls-2 {
        stroke-width: 0px;
      }

      .cls-2 {
        fill: #824e80;
      }
    </style>
  </defs>
  <path class="cls-2" d="M7.98,12.15c-.72,0-1.44,0-2.16,0-.43,0-.62-.2-.62-.68,0-1.25,0-2.49,0-3.74,0-.45.21-.69.6-.69,1.45,0,2.91,0,4.36,0,.4,0,.61.23.61.68,0,1.26,0,2.51,0,3.77,0,.45-.19.66-.59.66-.74,0-1.47,0-2.21,0ZM8.43,10.83c-.04-.38-.08-.73-.13-1.08-.02-.15-.02-.24.09-.36.22-.24.2-.61,0-.84-.21-.23-.54-.23-.75,0-.21.23-.24.61-.02.84.11.13.11.23.09.39-.05.35-.08.7-.12,1.07h.86Z"/>
  <path class="cls-1" d="M15,7.87c.23,0,.45,0,.67,0,.25,0,.31.13.17.36-.38.64-.77,1.28-1.16,1.92-.13.22-.23.22-.37-.01-.38-.63-.76-1.27-1.13-1.91-.04-.08-.08-.2-.06-.27.03-.06.14-.1.22-.1.2-.01.41,0,.67,0-.07-.53-.1-1.03-.2-1.52-.58-2.75-2.53-4.75-5-5.14-.49-.08-.99-.05-1.49-.04-.35.01-.6-.15-.63-.48-.03-.35.16-.6.51-.64,1.29-.16,2.55.04,3.72.69,2.26,1.24,3.59,3.29,4,6.09.05.33.05.66.08,1.04Z"/>
  <path class="cls-1" d="M.99,8.13c-.24,0-.45,0-.66,0-.08,0-.18-.04-.23-.11-.03-.04,0-.17.05-.24.38-.64.77-1.29,1.15-1.92.14-.23.23-.23.37,0,.38.63.76,1.27,1.13,1.91.04.08.09.22.06.27-.04.07-.16.11-.24.11-.19.02-.39,0-.64,0,.03.39.03.77.1,1.13.49,2.62,1.85,4.4,4.1,5.28.81.32,1.65.35,2.49.28.33-.03.58.15.61.47.04.36-.16.61-.52.65-1.16.14-2.29,0-3.36-.52-2.46-1.19-3.9-3.3-4.34-6.28-.05-.32-.05-.66-.08-1.02Z"/>
  <path class="cls-2" d="M7.03,6.8h-.99c.04-.78-.1-1.56.12-2.31.23-.78.86-1.31,1.59-1.34.24,0,.48-.02.71.03.88.19,1.41.87,1.49,1.89.02.24.02.48,0,.72,0,.07-.1.18-.17.19-.2.02-.41,0-.61.01-.15,0-.21-.06-.2-.22,0-.2,0-.41,0-.61-.02-.47-.25-.77-.65-.88-.6-.16-1.1.1-1.24.65-.03.14-.03.29-.04.44,0,.47,0,.94,0,1.44Z"/>
  <path class="cls-1" d="M13.63,11.23c.28,0,.5.24.5.55,0,.31-.23.56-.5.56-.27,0-.5-.26-.5-.56,0-.31.22-.55.5-.55Z"/>
  <path class="cls-1" d="M2.35,4.77c-.28,0-.49-.25-.49-.56,0-.31.24-.56.51-.55.27,0,.5.28.49.58,0,.31-.23.55-.51.54Z"/>
  <path class="cls-1" d="M3.6,3.08c-.27,0-.49-.27-.49-.57,0-.31.24-.56.5-.56.27,0,.49.27.49.58,0,.31-.23.56-.5.56Z"/>
  <path class="cls-1" d="M12.88,13.5c0,.3-.24.56-.51.55-.27-.01-.49-.27-.48-.58,0-.31.24-.56.51-.55.27,0,.49.28.48.58Z"/>
  <path class="cls-1" d="M5.71,1.27c0,.32-.21.56-.49.56-.28,0-.49-.25-.49-.56,0-.31.23-.56.49-.56.27,0,.49.25.49.57Z"/>
  <path class="cls-1" d="M11.26,14.73c0,.31-.23.56-.5.56-.27,0-.49-.25-.49-.57,0-.32.21-.56.49-.56.28,0,.49.25.49.56Z"/>
</svg>