<?xml version="1.0" encoding="UTF-8"?>
<svg id="Capa_1" data-name="Capa 1" xmlns="http://www.w3.org/2000/svg" viewBox="0 0 16 16">
  <defs>
    <style>
      .cls-1 {
        fill: #1c7cbf;
        stroke-width: 0px;
      }
    </style>
  </defs>
  <path class="cls-1" d="M8,0C3.58,0,0,3.58,0,8s3.58,8,8,8,8-3.58,8-8S12.42,0,8,0M11.5,7.5c.28,0,.5.22.5.5s-.22.5-.5.5h-5.79l2.15,2.15c.2.2.2.51,0,.71s-.51.2-.71,0l-3-3c-.2-.2-.2-.51,0-.71,0,0,0,0,0,0l3-3c.2-.2.51-.2.71,0s.2.51,0,.71l-2.15,2.15h5.79Z"/>
</svg>