<?xml version="1.0" encoding="UTF-8"?>
<svg id="Capa_1" data-name="Capa 1" xmlns="http://www.w3.org/2000/svg" viewBox="0 0 16 16">
  <defs>
    <style>
      .cls-1 {
        fill: #1c7cbf;
      }

      .cls-1, .cls-2 {
        stroke-width: 0px;
      }

      .cls-2 {
        fill: #824e80;
      }
    </style>
  </defs>
  <path class="cls-2" d="M11.27,11.17c-.01-.14-.02-.21-.02-.29,0-.42,0-.85,0-1.27,0-.24-.01-.25-.26-.25-1.02,0-2.05,0-3.07,0-.31,0-.32,0-.32-.31,0-.93,0-1.85,0-2.78,0-.24.01-.26.26-.26,1.04,0,2.08,0,3.11,0,.27,0,.28,0,.28-.28,0-.42,0-.83,0-1.25,0-.08.01-.15.03-.29,1.59,1.18,3.13,2.32,4.71,3.49-1.58,1.16-3.12,2.3-4.71,3.48Z"/>
  <path class="cls-1" d="M10.88,12.5c0,.79,0,1.59,0,2.38,0,.45-.18.63-.63.63-.81,0-1.61,0-2.42,0-.18,0-.27-.05-.25-.25.01-.16,0-.33,0-.5,0-.17.06-.22.22-.22.61,0,1.23,0,1.84,0,.28,0,.28,0,.28-.27,0-1.39,0-2.78,0-4.17,0-.28,0-.28.29-.29.15,0,.3,0,.46,0,.18-.01.21.08.21.23,0,.81,0,1.63,0,2.44Z"/>
  <path class="cls-1" d="M10.88,3.34c0-.68,0-1.35,0-2.03,0-.38-.18-.53-.63-.53-.81,0-1.61,0-2.42,0-.18,0-.27.04-.25.21.01.14,0,.28,0,.42,0,.14.06.19.22.18.61,0,1.23,0,1.84,0,.28,0,.28,0,.28.23,0,1.18,0,2.36,0,3.55,0,.24,0,.24.29.24.15,0,.3,0,.46,0,.18,0,.21-.07.21-.2,0-.69,0-1.38,0-2.08Z"/>
  <path class="cls-1" d="M7.24,8.02c0-1.44,0-2.88,0-4.32,0-1.02,0-2.05,0-3.07,0-.38-.29-.65-.64-.62-.43.03-.85.08-1.28.12-1.02.09-2.04.18-3.06.27-.57.05-1.13.1-1.7.16-.27.03-.45.2-.51.46-.03.12-.03.25-.03.37,0,4.24,0,8.47,0,12.71,0,.06,0,.12,0,.18.02.39.19.59.58.66,1.95.35,3.9.7,5.85,1.06.46.08.81-.21.8-.69-.02-2.43,0-4.85,0-7.28ZM5.67,8.96c-.34,0-.62-.43-.62-.96s.28-.96.62-.96.62.43.62.96-.28.96-.62.96Z"/>
</svg>