<?xml version="1.0" encoding="UTF-8"?>
<svg id="Capa_1" data-name="Capa 1" xmlns="http://www.w3.org/2000/svg" viewBox="0 0 16 16">
  <defs>
    <style>
      .cls-1 {
        fill: #1c7cbf;
      }

      .cls-1, .cls-2 {
        stroke-width: 0px;
      }

      .cls-2 {
        fill: #824e80;
      }
    </style>
  </defs>
  <path class="cls-2" d="M0,2C0,.9.9,0,2,0h7c1.1,0,2,.9,2,2v8.56c0,1.1-.9,2-2,2H2c-1.1,0-2-.9-2-2V2ZM10,11.32v-3h-4v3h4ZM5,11.32v-3H1v2c0,.55.45,1,1,1h3ZM1,7h4v-3H1v3ZM6,4v3h4v-3h-4Z"/>
  <path class="cls-1" d="M12.12,0h-.92v1h.92V0ZM13.5,0h-.46v1h.46c.1,0,.2,0,.29.03l.19-.98c-.16-.03-.32-.05-.49-.05M15.58,1.11c-.18-.27-.42-.51-.69-.69l-.56.83c.17.11.3.25.41.41l.83-.56h0ZM16,2.5c0-.17-.02-.33-.05-.49l-.98.19c.02.09.03.19.03.29v.46h1v-.46ZM16,4.8v-.92h-1v.92h1ZM16,6.63v-.92h-1v.92h1ZM15,8.46h1v-.92h-1v.92ZM16,10.3v-.92h-1v.92h1ZM16,12.13v-.92h-1v.92h1ZM0,13.05v.46c0,.17.02.33.05.49l.98-.19c-.02-.1-.03-.19-.03-.29v-.46H0ZM16,13.5v-.46h-1v.46c0,.1,0,.2-.03.29l.98.19c.03-.16.05-.32.05-.49M.42,14.89c.18.27.42.51.69.69l.56-.83c-.16-.11-.31-.25-.41-.41l-.83.56ZM14.89,15.58c.27-.18.51-.42.69-.69l-.83-.56c-.11.16-.25.31-.41.41l.56.83h0ZM2.01,15.96c.16.03.32.05.49.05h.46v-1h-.46c-.1,0-.2,0-.29-.03l-.19.98ZM13.5,16c.17,0,.33-.02.49-.05l-.19-.98c-.1.02-.19.03-.29.03h-.46v1h.46ZM3.88,16h.92v-1h-.92v1ZM5.71,16h.92v-1h-.92v1ZM7.54,16h.92v-1h-.92v1ZM9.38,16h.92v-1h-.92v1ZM11.21,16h.92v-1h-.92v1Z"/>
</svg>