<?xml version="1.0" encoding="UTF-8"?>
<svg id="Capa_1" data-name="Capa 1" xmlns="http://www.w3.org/2000/svg" viewBox="0 0 16 16">
  <defs>
    <style>
      .cls-1 {
        fill: #1c7cbf;
      }

      .cls-1, .cls-2 {
        stroke-width: 0px;
      }

      .cls-2 {
        fill: #824e80;
      }
    </style>
  </defs>
  <path class="cls-1" d="M14.89,6.55V2.17c0-.97-.78-1.75-1.75-1.75H2.64c-.97,0-1.75.78-1.75,1.75v4.38c0,.6.31,1.14.77,1.45-.47.31-.77.85-.77,1.45v4.38c0,.97.78,1.75,1.75,1.75h10.5c.97,0,1.75-.78,1.75-1.75v-4.38c0-.6-.31-1.14-.77-1.45.47-.31.77-.85.77-1.45ZM1.77,2.17c0-.48.39-.88.88-.88h10.5c.48,0,.88.39.88.88v1.75H1.77v-1.75ZM1.77,4.8h12.25v1.75c0,.48-.39.88-.88.88H2.64c-.48,0-.88-.39-.88-.88v-1.75ZM14.02,13.83c0,.48-.39.88-.88.88H2.64c-.48,0-.88-.39-.88-.88v-1.75h12.25v1.75ZM14.02,11.2H1.77v-1.75c0-.48.39-.88.88-.88h10.5c.48,0,.88.39.88.88v1.75Z"/>
  <path class="cls-2" d="M10.96,2.17H3.08c-.24,0-.44.2-.44.44s.2.44.44.44h7.88c.24,0,.44-.2.44-.44s-.2-.44-.44-.44Z"/>
  <path class="cls-2" d="M3.08,6.55h5.25c.24,0,.44-.2.44-.44s-.2-.44-.44-.44H3.08c-.24,0-.44.2-.44.44s.2.44.44.44Z"/>
  <path class="cls-2" d="M10.96,9.45H3.08c-.24,0-.44.2-.44.44s.2.44.44.44h7.88c.24,0,.44-.2.44-.44s-.2-.44-.44-.44Z"/>
  <path class="cls-2" d="M3.08,13.83h5.25c.24,0,.44-.2.44-.44s-.2-.44-.44-.44H3.08c-.24,0-.44.2-.44.44s.2.44.44.44Z"/>
</svg>