<?xml version="1.0" encoding="utf-8"?>
<!-- Generator: Adobe Illustrator 28.2.0, SVG Export Plug-In . SVG Version: 6.00 Build 0)  -->
<svg version="1.1" id="Capa_1" xmlns="http://www.w3.org/2000/svg" xmlns:xlink="http://www.w3.org/1999/xlink" x="0px" y="0px"
	 viewBox="0 0 64 64" style="enable-background:new 0 0 64 64;" xml:space="preserve">
<style type="text/css">
	.st0{fill:#824E80;}
	.st1{fill:#1C7CBF;}
</style>
<g>
	<g id="Capa_1_00000125568540231796678730000006153109143032124311_">
		<g id="icon_mesa-de-ayuda">
			<path class="st0" d="M43.9,16.9c-3.1,0-5.6,2.5-5.7,5.6c0,2.9,2.1,5.3,5,5.6c0.1,0.5,0.2,1.1,0.1,1.6c0,3.3-1.5,6.9-8.9,6.9
				c-0.1,0-0.2,0-0.3,0v-1.5h-8.5v5.4h8.5v-1.1c13.2,0.4,11.8-9.5,12-10.9c0.1-0.4,0.2-0.7,0.4-1c1.8-1,2.9-2.9,2.9-5
				C49.5,19.4,47,16.9,43.9,16.9L43.9,16.9z"/>
			<path class="st1" d="M36.3,50.9c-0.2-0.1-0.3-0.2-0.5-0.2L24.6,50l-0.4-5.5c0-0.3-0.1-0.5-0.4-0.7l-2.2-1.9l1.3-1.2
				c0.2-0.2,0.3-0.5,0.3-0.7c0-0.3-0.1-0.5-0.3-0.7L21,37.6l0.8-2.7c0.1-0.4,0-0.9-0.4-1.1L17,30.6l5.5-5.3c0.2-0.2,0.3-0.4,0.3-0.6
				l0.8-9l4.5-7.8c0.3-0.5,0.1-1.1-0.4-1.4c-0.5-0.3-1.1-0.1-1.4,0.4l-4.6,8c-0.1,0.1-0.1,0.3-0.1,0.4l-0.7,8.9L14.7,30
				c-0.2,0.2-0.3,0.5-0.3,0.8c0,0.3,0.2,0.6,0.4,0.7l4.8,3.4l-0.8,2.6c-0.1,0.4,0,0.8,0.3,1l1.5,1.3l-1.3,1.3
				C19.1,41.5,19,41.8,19,42c0,0.3,0.1,0.5,0.4,0.7l2.8,2.3l0.5,6c0,0.5,0.4,0.9,0.9,0.9l11.7,0.8l6.2,4.7c0.2,0.1,0.4,0.2,0.6,0.2
				c0.3,0,0.6-0.1,0.8-0.4c0.3-0.4,0.2-1.1-0.2-1.4L36.3,50.9L36.3,50.9z"/>
		</g>
	</g>
</g>
</svg>
